<svg width="576" height="576" viewBox="0 0 576 576" fill="none" xmlns="http://www.w3.org/2000/svg">
<path fill-rule="evenodd" clip-rule="evenodd" d="M0 96C0 42.9806 42.9807 0 96 0H288V96H96V480H304.388C343.924 368.142 450.603 288 576 288V480C576 533.019 533.019 576 480 576V410.843C423.186 443.938 385 505.51 385 576H0V96ZM576 0H384V96H480V192H576V0ZM232.615 420.923C189.792 420.923 155.077 386.208 155.077 343.384C155.077 300.561 189.792 265.846 232.615 265.846C275.439 265.846 310.154 300.561 310.154 343.384C310.154 386.208 275.439 420.923 232.615 420.923Z" fill="white"/>
</svg>
